<svg xmlns="http://www.w3.org/2000/svg" data-name="Layer 1" width="888" height="580.12842" viewBox="0 0 888 580.12842" xmlns:xlink="http://www.w3.org/1999/xlink"><path d="M896.63944,735.33532c-20.4904-21.35-41.03409-21.09668-61.56885.75879-19.17212,20.49658-37.48243,21.50939-57.86932,3.1709-11.2317-10.10742-22.45825-20.24609-36.688-27.78076-3.59034-1.90332-7.18555-3.8002-10.78369-5.68359-11.7378-6.14844-23.47754-12.293-35.25342-18.37842-2.31494-1.19629-4.6394-2.36817-6.9715-3.50634-3.98267-1.94482-7.97949-3.82324-11.99658-5.6499-35.22217-16.04932-72.6582-29.25738-110.53491-39.028-8.96484-2.30957-17.97851-4.439-27.0249-6.41846-117.49365-25.748-232.54492-28.36279-334.49658,15.82471-13.63732,5.90088-26.10888,13.01172-38.11524,21.11377-12.49683,8.41406-26.501,14.61865-41.71191,18.59815.001-.00049-.001-.00049-.002-.001A194.82864,194.82864,0,0,1,98.12116,683.271c-.01611-.002-.0332-.00341-.0498-.00489a187.22323,187.22323,0,0,1-45.21192.80322q-2.36865-.23535-4.7251-.54394c-.50488-.06494-1.01026-.12891-1.51514-.19825-2.25781-.31053-4.50927-.67041-6.75342-1.08594l-.3125-.05713c-1.1582-.2146-2.31591-.43848-3.47314-.67578-29.52246-6.0498-58.29248-16.86425-85.20068-34.87744l-1.96093,2.44971c27.23,18.24023,56.33642,29.2017,86.19189,35.30956,1.16211.23926,2.32373.46485,3.48632.68116l.31348.05713c2.25684.41895,4.52148.78174,6.792,1.09327.50488.06933,1.00928.13379,1.51514.1982,1.57032.20263,3.14258.3872,4.7207.541a189.45485,189.45485,0,0,0,45.65625-.781c.01514.00147.03027.00245.0459.00392a195.89692,195.89692,0,0,0,26.63537,5.00244c15.56934-3.96045,29.92188-10.22949,42.70508-18.80957,11.85645-7.98926,24.147-15.00635,37.59765-20.8291,101.54-44.03076,216.125-41.44092,333.19336-15.78565,9.02149,1.97608,17.94873,4.0957,26.94776,6.40576,37.70557,9.73926,74.96973,22.89014,110.05078,38.87061,4.00684,1.82177,7.99317,3.69531,11.96631,5.63476,2.3291,1.13672,4.6499,2.30664,6.96,3.5,11.79492,6.09326,23.55371,12.249,35.31933,18.4082,3.59815,1.88378,7.19336,3.78066,10.78418,5.68359,14.66309,7.77832,26.1914,18.186,37.67773,28.52393,19.4209,17.48584,36.92382,16.44922,55.4834-3.333,21.47754-22.91259,43.19238-23.10791,64.56348-.57862l2.11474-2.31445Z" transform="translate(-156 -159.93579)" fill="#f2f2f2"/><path d="M900.01,739.39014H158.01a2.00591,2.00591,0,0,1-2-2v-217a2.00587,2.00587,0,0,1,2-2H900.01a2.00587,2.00587,0,0,1,2,2v217A2.00591,2.00591,0,0,1,900.01,739.39014Zm-742-4H898.01v-213H158.01Z" transform="translate(-156 -159.93579)" fill="#e6e6e6"/><path d="M518.64133,519.76709H262.06618a6.5,6.5,0,1,1,0-13H518.64133a6.5,6.5,0,0,1,0,13Z" transform="translate(-156 -159.93579)" fill="#e6e6e6"/><path d="M599.239,545.39014H262.06618a6.5,6.5,0,1,1,0-13H599.239a6.5,6.5,0,0,1,0,13Z" transform="translate(-156 -159.93579)" fill="#e6e6e6"/><path d="M599.239,571.39014H262.06618a6.5,6.5,0,1,1,0-13H599.239a6.5,6.5,0,0,1,0,13Z" transform="translate(-156 -159.93579)" fill="#e6e6e6"/><path d="M599.239,597.39014H262.06618a6.5,6.5,0,1,1,0-13H599.239a6.5,6.5,0,0,1,0,13Z" transform="translate(-156 -159.93579)" fill="#e6e6e6"/><path d="M599.239,623.39014H262.06618a6.5,6.5,0,1,1,0-13H599.239a6.5,6.5,0,0,1,0,13Z" transform="translate(-156 -159.93579)" fill="#e6e6e6"/><path d="M599.239,649.39014H262.06618a6.5,6.5,0,1,1,0-13H599.239a6.5,6.5,0,0,1,0,13Z" transform="translate(-156 -159.93579)" fill="#e6e6e6"/><circle cx="487.99081" cy="328.46426" r="9.06119" fill="#007AFF"/><circle cx="487.99081" cy="354.64574" r="9.06119" fill="#007AFF"/><circle cx="487.99081" cy="380.82722" r="9.06119" fill="#007AFF"/><circle cx="487.99081" cy="407.0087" r="9.06119" fill="#007AFF"/><circle cx="487.99081" cy="433.19018" r="9.06119" fill="#007AFF"/><circle cx="487.99081" cy="459.37166" r="9.06119" fill="#007AFF"/><path d="M780.64944,406.5h-134a8,8,0,0,1,0-16h134a8,8,0,0,1,0,16Z" transform="translate(-156 -159.93579)" fill="#ccc"/><path d="M780.64944,442.5h-134a8,8,0,0,1,0-16h134a8,8,0,0,1,0,16Z" transform="translate(-156 -159.93579)" fill="#ccc"/><path d="M780.64944,478.5h-134a8,8,0,0,1,0-16h134a8,8,0,0,1,0,16Z" transform="translate(-156 -159.93579)" fill="#ccc"/><path d="M893.33359,651.213H802.29481a5.3839,5.3839,0,0,1-5.29809-4.39942l-12.70048-68.1098a4.11642,4.11642,0,0,1,4.10681-4.83187h118.7899a4.11206,4.11206,0,0,1,4.10645,4.8319l-12.67373,68.10968A5.38485,5.38485,0,0,1,893.33359,651.213Z" transform="translate(-156 -159.93579)" fill="#007AFF"/><path d="M856.06039,657.86322a5.50949,5.50949,0,0,0,5.43484-6.5249l-4.03866-20h-40.8772l-4.79782,21.97126a5.50872,5.50872,0,0,0,5.37354,6.62939l38.9053-.07574Z" transform="translate(-156 -159.93579)" fill="#2f2e41"/><circle cx="692.49741" cy="411.14157" r="10" fill="#f2f2f2"/><path d="M856.90375,603.572a.49993.49993,0,0,1-.3538-.85449c.30224-.31885.22858-.70363.13758-1.12714a3.40306,3.40306,0,0,0-.9931-1.8291c-2.78161-2.74139-8.64453-1.61072-8.75293-1.59229a.5.5,0,1,1-.168-.98632c.124-.02149,6.31543-1.17334,9.41552,1.87011a4.15492,4.15492,0,0,1,1.25,2.28906c.12793.59473.25976,1.2085-.24316,1.73486A.49794.49794,0,0,1,856.90375,603.572Z" transform="translate(-156 -159.93579)" fill="#2f2e41"/><path d="M836.28019,603.48045a.49962.49962,0,0,1-.25586-.93018c.92968-.54688,1.088-1.18262,1.27148-1.89356.1333-.51562.27148-1.04882.64844-1.585.91015-1.292,2.42773-1.91357,4.41992-1.81445a.50024.50024,0,0,1-.05567.99952c-1.71289-.09082-2.92187.40723-3.62793,1.5a2.51528,2.51528,0,0,0-.46,1.22608c-.17627.68409-.35742,1.39111-1.46,2.03565A.50035.50035,0,0,1,836.28019,603.48045Z" transform="translate(-156 -159.93579)" fill="#2f2e41"/><circle cx="692.49741" cy="365.14157" r="15" fill="#f2f2f2"/><path d="M847.5144,538.59838a26.32336,26.32336,0,0,0-11.96875-1.59375,13.72947,13.72947,0,0,0-6.896,2.9751c-1.14306.80566-1.28638.2627-1.00684-.809,1.92042-7.36718,8.478-12.05761,16.13574-11.30664,6.71729.66116,11.54053,5.35352,12.55376,12.01562C856.68071,542.1799,856.48339,541.83,847.5144,538.59838Z" transform="translate(-156 -159.93579)" fill="#2f2e41"/><path d="M901.64944,357.5h-134a8,8,0,0,1,0-16h134a8,8,0,0,1,0,16Z" transform="translate(-156 -159.93579)" fill="#ccc"/><path d="M381.7154,457.2438c-22.76391-28.88172-61.61045-39.04625-95.19756-24.47336a107.71311,107.71311,0,0,0-35.46671,25.66183c-28.27668,30.95561-37.8767,79.37-43.13442,121.37283-7.60721,60.63309,4.09341,140.83458,65.495,162.56257a83.75809,83.75809,0,0,0,32.83641,5.28146c17.55646-1.25189,33.67327-9.06031,49.016-17.15244a1185.866,1185.866,0,0,0,120.59857-77.19972c8.25481-6.0607,16.4336-12.21276,23.90655-19.104a169.58347,169.58347,0,0,0,25.22222-27.87926,105.3526,105.3526,0,0,0,17.9849-35.71735c2.97238-11.694,4.45953-24.80807-.46151-36.01223-5.45361-12.4324-18.87095-19.948-32.18039-21.42852-15.23782-1.69211-30.31191,2.68219-44.46159,7.823-14.25144,5.17992-28.57874,10.29435-42.81444,15.54931-5.63188,2.08193-12.92822,4.227-19.14966,3.91141a23.84574,23.84574,0,0,1-9.199-2.559c-5.13177-2.5488-9.10382-7.27586-11.40716-12.57247-2.86968-6.60825-2.63987-14.35675-.2239-21.04309a40.12173,40.12173,0,0,1,26.3814-24.81188" transform="translate(-156 -159.93579)" fill="#f2f2f2"/><path d="M292.5,214.5a1.5,1.5,0,0,1-1.5-1.5V184.5a1.5,1.5,0,0,1,3,0V213A1.5,1.5,0,0,1,292.5,214.5Z" transform="translate(-156 -159.93579)" fill="#ccc"/><path d="M306,198h-27a1.5,1.5,0,0,1,0-3h27a1.5,1.5,0,0,1,0,3Z" transform="translate(-156 -159.93579)" fill="#ccc"/><path d="M512.5,242.5a1.5,1.5,0,0,1-1.5-1.5V212.5a1.5,1.5,0,0,1,3,0V241A1.5,1.5,0,0,1,512.5,242.5Z" transform="translate(-156 -159.93579)" fill="#ccc"/><path d="M526,226H499a1.5,1.5,0,0,1,0-3h27a1.5,1.5,0,0,1,0,3Z" transform="translate(-156 -159.93579)" fill="#ccc"/><path d="M712.5,278.5a1.5,1.5,0,0,1-1.5-1.5V248.5a1.5,1.5,0,0,1,3,0V277A1.5,1.5,0,0,1,712.5,278.5Z" transform="translate(-156 -159.93579)" fill="#ccc"/><path d="M726,262H699a1.5,1.5,0,0,1,0-3h27a1.5,1.5,0,0,1,0,3Z" transform="translate(-156 -159.93579)" fill="#ccc"/></svg>