<svg id="a547a08c-9a9f-4214-9e41-96c7fb79189d" data-name="Layer 1" xmlns="http://www.w3.org/2000/svg" width="1009.54305" height="787.47934" viewBox="0 0 1009.54305 787.47934"><title>process</title><path d="M733.59571,253.87763c0,40.33-16.06,75.69-48.18,106.1q-9.62977,9.135-21.06,17.47-4.716,3.42-9.84,6.59c-3.6,2.22-7.25,4.32-11.02,6.34a173.65163,173.65163,0,0,1-16.83,7.93c-1.29.54-2.59,1.05-3.89,1.57-.86.33-1.7.63995-2.56.95-41.69,15.31-92.38,16.79-150.36,4.33h-.03q-9.18006-1.965-18.48-4.5c-2.21-.59994-4.43-1.22-6.64-1.87q-12.06006-3.495-24.27-7.87-24.33-8.685-48.47-20.61-.495-.24-.99-.48c-2.12-1.01-4.25-2.05-6.37-3.11q-19.74-9.81-38.86005-21.78-9.315-5.805-18.35-12.1c-96.95-67.88-152.76-172.18-151.13-276.67h2v-1c0,69.69,25.14,137.44,70.7,191.56q6.3,7.455,13.17,14.41c3.3,3.34,6.69,6.58,10.15,9.74,46.27,42.35,108.2,68.94,178.86,76.44q9.75,1.035,19.81,1.5,10.35.48,21,.48,1.5,0,3.01-.01,13.05-.075,26.31-1.01,6.015-.42,12.09-1.04,20.625-2.1,41.85-6.61c4.15-.88,8.33-1.83,12.5-2.88,51.98-12.96,104.33-40.21,149.1-84.28h.01q6.945-6.84,13.51-14.2c28.86-32.4,50.57-68.11,64.72-106.58h.01q4.155-11.265,7.46-23.05,1.605-5.67,2.9-11.44a272.67841,272.67841,0,0,0,7.09-62.2C735.48572,250.06764,733.59571,253.87763,733.59571,253.87763Z" transform="translate(-95.22848 -56.26033)" fill="#3f3d56"/><path d="M685.41569,359.97766q-9.62977,9.135-21.06,17.47-4.716,3.42-9.84,6.59c-3.6,2.22-7.25,4.32-11.02,6.34a173.65163,173.65163,0,0,1-16.83,7.93c-1.29.54-2.59,1.05-3.89,1.57-.86.33-1.7.63995-2.56.95-41.69,15.31-92.38,16.79-150.36,4.33h-.03q-9.18006-1.965-18.48-4.5c-2.21-.59994-4.43-1.22-6.64-1.87q-12.06006-3.495-24.27-7.87-24.33-8.685-48.47-20.61-.495-.24-.99-.48c-2.12-1.01-4.25-2.05-6.37-3.11q-19.74-9.81-38.86005-21.78-9.315-5.805-18.35-12.1c-96.95-67.88-152.76-172.18-151.13-276.67h2v-1h734.13v1c0,69.69-25.14,137.44-70.7,191.56Q714.72573,353.03262,685.41569,359.97766Z" transform="translate(-95.22848 -56.26033)" fill="none"/><path d="M628.729,401.21763l-1.41.41-.44.66-.43.65-.19.29-.23.35c-41.69,15.31-92.38,16.79-150.36,4.33h-.03l-.37-1.5-.4-1.64-2.64-10.46-4.85-19.2-2.05-8.13-2.74-10.82-2.11-8.47-.93994-3.7-2.1-8.48-2.75,8.48-1.5,4.59-7.71,23.64-3.71-1.15-9.85-3.02-10.66-3.31-9.84-3.05c-2.21-.59994-4.43-1.22-6.64-1.87l-8.76-2.47-2.35-.68-6.82-1.93-9.84,2.96-5.74,1.72-2.95.89-9.06,2.72-2,.61-6.99,2.09-4.02,1.21-5.76,1.72-3.39,1.02-8.06,2.43-8.32,2.5-5.75,1.72-10.37,3.12-2.42.73-1.45.42994-10.16-3.89-1.23-.48-1.08-.41-.91-.34-.95-.36-6.59-2.53c-2.12-1.01-4.25-2.05-6.37-3.11l-.76-.37h-.01l-.99005-.49-8.32-4.14-5.17-2.58-2.3-1.15-4.85-2.42-1.15-.58-4.87-2.43-6.9-3.45-4.85-2.43-2.87-1.44-4.85-2.43-4.72-2.36005-3.01-1.51-4.85-2.43-.24-.11-.78995-.4q-9.315-5.805-18.35-12.1c-96.95-67.88-152.76-172.18-151.13-276.67h2v-1h734.13v1l-1.57-.06Z" transform="translate(-95.22848 -56.26033)" fill="#007AFF"/><polygon points="520.299 350.823 521.483 338.302 548.887 338.803 547.318 352.958 520.299 350.823" fill="#ffb8b8"/><polygon points="520.299 350.823 521.483 338.302 536.493 338.581 536.113 351.568 520.299 350.823" opacity="0.1"/><polygon points="488.536 347.619 489.72 335.098 517.124 335.599 515.555 349.754 488.536 347.619" fill="#ffb8b8"/><polygon points="488.536 347.619 489.72 335.098 504.73 335.377 504.35 348.364 488.536 347.619" opacity="0.1"/><circle cx="523.31608" cy="291.07898" r="35.13364" fill="#ffb8b8"/><path d="M577.94725,361.56472l46.8791-1.12933,0,0a124.18588,124.18588,0,0,1,123.02957,125.33524l-.01965,1.27811L661.91608,508.81763l-2.25867-12.98724-9.03468,11.85858-20.36286-1.69325-9.03467-10.73791-4.51734,9.04633L577.94725,496.8l-17.30729-116.30232Z" transform="translate(-95.22848 -56.26033)" fill="#2f2e41"/><path d="M633.7201,503.33795c.772,3.21307,3.95022,5.1464,7.15648,5.91355,3.20867.76735,6.5482.85742,9.72839,1.75436,5.73828,1.623,10.73993,5.58875,14.61713,10.12482,3.878,4.53626,6.83631,9.72247,9.97433,14.80451,9.19236,14.93281,20.50577,29.42,37.87152,34.0163a28.61208,28.61208,0,0,0,11.7468,1.25474,41.13539,41.13539,0,0,0,10.58236-2.853c2.12506-.86261,4.30446-1.93243,5.46365-3.93768,1.31193-2.269.96862-5.14162.26533-7.68277-1.92155-6.93922-6.93339-12.66278-12.88748-16.55229s-12.73013-6.215-19.4274-8.38021c-4.96985-1.60245-10.142-3.28095-14.17334-6.7762-4.03077-3.5017-6.49547-9.32231-4.19582-14.09057-3.64431,2.6131-4.74525-4.64429-1.51928-7.73856-3.78077-1.05574-6.01086-5.33068-5.77839-9.27047s2.3287-7.57129,4.9483-10.64l.31562-.36864a9.94431,9.94431,0,0,0-4.836,3.1331,10.49617,10.49617,0,0,0-1.8833,5.05438,1.753,1.753,0,0,1-.07927,1.11181,1.42118,1.42118,0,0,1-1.28018.336c-6.01327-1.11358-12.10379-2.63873-17.10838-6.2418-5.00538-3.60307-8.4867-9.73166-7.45838-15.77316-2.85457,6.25757-.35346,13.64082,3.44452,19.3862A36.8273,36.8273,0,0,0,633.7201,503.33795Z" transform="translate(-95.22848 -56.26033)" fill="#e6e6e6"/><polygon points="501.123 721.084 485.543 721.083 478.138 659.249 501.126 659.25 501.123 721.084" fill="#ffb8b8"/><path d="M599.70929,787.99274l-52.99475-.002v-.67045a20.62815,20.62815,0,0,1,20.627-20.627h.00131l32.3675.00131Z" transform="translate(-95.22848 -56.26033)" fill="#2f2e41"/><polygon points="449.123 721.084 433.543 721.083 426.138 659.249 449.126 659.25 449.123 721.084" fill="#ffb8b8"/><path d="M547.70929,787.99274l-52.99475-.002v-.67045a20.62815,20.62815,0,0,1,20.627-20.627h.00131l32.3675.00131Z" transform="translate(-95.22848 -56.26033)" fill="#2f2e41"/><path d="M574.61068,512.45018l31.49985-2.24285h.00007a87.578,87.578,0,0,1,94.99,79.64639v.47516L690.60054,744.84467h-42.97l-7.5-109.5-31.5,110.5H538.811q-2.00293-110.13813-4.00586-220.2761Z" transform="translate(-95.22848 -56.26033)" fill="#2f2e41"/><path d="M733.59571,253.87763c0,40.33-16.06,75.69-48.18,106.1q-9.62977,9.135-21.06,17.47-4.716,3.42-9.84,6.59c-3.6,2.22-7.25,4.32-11.02,6.34-20.18,10.99-44.83,18.85-75.58,18.85-31.35,0-59.45-8.05-80.21-21.77q-9.18006-1.965-18.48-4.5c-2.21-.59994-4.43-1.22-6.64-1.87a190.55065,190.55065,0,0,1-72.74-41.98q-19.74-9.81-38.86005-21.78-9.315-5.805-18.35-12.1c-96.95-67.88-152.76-172.18-151.13-276.67h2v-1h734.13v1C735.48572,84.85762,735.48571,171.06764,733.59571,253.87763Z" transform="translate(-95.22848 -56.26033)" fill="none"/><path d="M712.53571,360.36763q-4.716,3.42-9.84,6.59c-3.6,2.22-7.25,4.32-11.02,6.34a173.65163,173.65163,0,0,1-16.83,7.93c-1.29.54-2.59,1.05-3.89,1.57-.86.33-1.7.63995-2.56.95-41.69,15.31-92.38,16.79-150.36,4.33h-.03q-9.18006-1.965-18.48-4.5c-2.21-.59994-4.43-1.22-6.64-1.87-8.02-2.32-16.09-4.99-24.27-7.87q-24.33-8.685-48.47-20.61-.495-.24-.99-.48c-2.12-1.01-4.25-2.05-6.37-3.11q-19.74-9.81-38.86005-21.78-9.315-5.805-18.35-12.1c-96.95-67.88-152.76-172.18-151.13-276.67h2v-1h734.13v1l-1.57-.06L736.55575,248.447Q716.6357,304.79762,712.53571,360.36763Z" transform="translate(-95.22848 -56.26033)" fill="none"/><path d="M662.53571,367.16759a148.11608,148.11608,0,0,1-16.03,7.06c-1.29.54-2.59,1.05-3.89,1.57-.86.33-1.7.63995-2.56.95-2.84,1.05-5.74,2.01-8.7,2.88-13.05,3.89-27.09,6.37-42.12,7.48q-8.55.645-17.43.67c-1,0-2.01.01-3.01.01-12.7.03-25.72-.45-39.11-1.49q-9.885-.75-20.04-2.02-9.18006-1.965-18.48-4.5c-2.21-.59994-4.43-1.22-6.64-1.87-8.02-2.32-16.09-4.99-24.27-7.87q-24.33-8.685-48.47-20.61-.495-.24-.99-.48c-2.12-1.01-4.25-2.05-6.37-3.11q-19.74-9.81-38.86005-21.78-9.315-5.805-18.35-12.1l-4.73-3.3-3.31-2.32-5.13-3.6c-96.95-67.88-152.18-172.74-151.13-276.67h2v-1h734.13v1l-1.57-.06L736.55575,248.447a211.25521,211.25521,0,0,1-10.88,31.3c-16.78,38.48-43.53,71.23-79.14,87.42Z" transform="translate(-95.22848 -56.26033)" fill="none"/><path d="M630.00565,232.18755h-1c0-62.94751-51.2041-114.15161-114.15161-114.15161s-114.15161,51.2041-114.15161,114.15161h-1c0-63.4994,51.65221-115.15161,115.15161-115.15161S630.00565,168.68815,630.00565,232.18755Z" transform="translate(-95.22848 -56.26033)" fill="#3f3d56"/><path d="M856.22848,787.47934h-760a1,1,0,0,1,0-2h760a1,1,0,0,1,0,2Z" transform="translate(-95.22848 -56.26033)" fill="#3f3d56"/><path d="M675.58044,555.90131a7.56365,7.56365,0,0,1-6.342-3.45353L656.03869,532.263a7.565,7.565,0,0,1,2.47474-10.3821l83.39278-52.78905,63.141-2.03459,9.51025-8.5592,30.04467,28.15542-16.68845,13.39077-72.43061,9.28212L673.9093,554.4962A7.56364,7.56364,0,0,1,675.58044,555.90131Z" transform="translate(-95.22848 -56.26033)" fill="#2f2e41"/><path d="M809.04674,508.24775l-24.04115,28.57354-79.05316-72.97233-5.82541-35.40261-7.37183-44.80537c-1.97806-12.02668,6.02731-23.11844,17.87005-24.7531h0c11.02448-1.5243,21.276,5.73742,23.34248,16.64032Z" transform="translate(-95.22848 -56.26033)" fill="#2f2e41"/><circle cx="623.28387" cy="303.86684" r="24.56103" fill="#ffb8b8"/><path d="M713.59571,253.87763h-.00006l-24.45373,23.78816c-1.933,1.8811-5.49441,2.08769-7.89433.45849l-16.16448-10.98641c-.79719-.542-1.59174-1.09444-2.35878-1.68673q-6.3-4.86119-12.2103-10.22149h0a140.311,140.311,0,0,1-12.76513-12.87671c-.76703-.86389-1.51661-1.737-2.23872-2.63051a138.07806,138.07806,0,0,1-20.95886-34.21706q-1.0452-2.5778-1.9632-5.22531c-.91069-2.62784-1.73394-5.29714-2.44744-8.01134q-.59136-2.19573-1.07648-4.41858a139.21955,139.21955,0,0,1-3.17641-35.2547c.077-1.71884.19162-3.43769.32374-5.1459a139.62931,139.62931,0,0,1,6.53281-31.38205l2.66608-7.98823h99.13406Z" transform="translate(-95.22848 -56.26033)" fill="#007AFF"/><path d="M728.59571,253.87763a17.14744,17.14744,0,0,1-.7,4.83,16.92873,16.92873,0,0,1-1.07,2.71,16.0321,16.0321,0,0,1-14.23,8.76,14.19888,14.19888,0,0,1-1.83-.1,16.054,16.054,0,0,1-14.17-16.2v-84a16.09,16.09,0,0,1,16.21-16.03l13.79.12a16.09355,16.09355,0,0,1,15.97,16.05Z" transform="translate(-95.22848 -56.26033)" fill="#007AFF"/><path d="M646.69571,241.39765a5.007,5.007,0,0,1-4.54,5.02,4.964,4.964,0,0,1-2.33-.28,4.19321,4.19321,0,0,1-.57-.25,4.84553,4.84553,0,0,1-.64-.39,5.00712,5.00712,0,0,1-1.92-5.3,4.82213,4.82213,0,0,1,.54-1.42,5.01994,5.01994,0,0,1,9.46,2.62Z" transform="translate(-95.22848 -56.26033)" fill="#fff"/><path d="M658.34571,214.60766a5.007,5.007,0,0,1-4.54,5.02,4.964,4.964,0,0,1-2.33-.28,4.19321,4.19321,0,0,1-.57-.25,4.84553,4.84553,0,0,1-.64-.39,5.00712,5.00712,0,0,1-1.92-5.3,4.82213,4.82213,0,0,1,.54-1.42,5.01994,5.01994,0,0,1,9.46,2.62Z" transform="translate(-95.22848 -56.26033)" fill="#fff"/><path d="M631.54573,196.27765a5.007,5.007,0,0,1-4.54,5.02,4.964,4.964,0,0,1-2.33-.28,4.19321,4.19321,0,0,1-.57-.25,4.84553,4.84553,0,0,1-.64-.39,5.00712,5.00712,0,0,1-1.92-5.3,4.82213,4.82213,0,0,1,.54-1.42,5.01994,5.01994,0,0,1,9.46,2.62Z" transform="translate(-95.22848 -56.26033)" fill="#fff"/><path d="M646.69571,167.29763a5.007,5.007,0,0,1-4.54,5.02,4.964,4.964,0,0,1-2.33-.28,4.19321,4.19321,0,0,1-.57-.25,4.84553,4.84553,0,0,1-.64-.39,5.00712,5.00712,0,0,1-1.92-5.3,4.82213,4.82213,0,0,1,.54-1.42,5.01994,5.01994,0,0,1,9.46,2.62Z" transform="translate(-95.22848 -56.26033)" fill="#fff"/><path d="M407.15566,306.74773a7.5636,7.5636,0,0,1-6.77263,13.19608L379.38788,325.776a7.56507,7.56507,0,0,1-3.47631-10.00376l26.79341-53.27937-8.83442-59.34723-3.46944-11.9539,40.526-1.05826-1.21542,20.96257-10.66875,70.45889Z" transform="translate(-95.22848 -56.26033)" fill="#ffb8b8"/><circle cx="316.16635" cy="106.1929" r="24.56103" fill="#ffb8b8"/><path d="M395.7201,171.33795c.772,3.21307,3.95022,5.1464,7.15648,5.91355,3.20867.76735,6.5482.85742,9.72839,1.75436,5.73828,1.623,10.73993,5.58875,14.61713,10.12482,3.878,4.53626,6.83631,9.72247,9.97433,14.80451,9.19236,14.93281,20.50577,29.42,37.87152,34.0163a28.61208,28.61208,0,0,0,11.7468,1.25474,41.13539,41.13539,0,0,0,10.58236-2.853c2.12506-.86261,4.30446-1.93243,5.46365-3.93768,1.31193-2.269.96862-5.14162.26533-7.68277-1.92155-6.93922-6.93339-12.66278-12.88748-16.55229s-12.73013-6.215-19.4274-8.38021c-4.96985-1.60245-10.142-3.28095-14.17334-6.7762-4.03077-3.5017-6.49547-9.32231-4.19582-14.09057-3.64431,2.6131-4.74525-4.64429-1.51928-7.73856-3.78077-1.05574-6.01086-5.33068-5.77839-9.27047s2.3287-7.57129,4.9483-10.64l.31562-.36864a9.94431,9.94431,0,0,0-4.836,3.1331,10.49617,10.49617,0,0,0-1.8833,5.05438,1.753,1.753,0,0,1-.07927,1.11181,1.42118,1.42118,0,0,1-1.28018.336c-6.01327-1.11358-12.10379-2.63873-17.10838-6.2418-5.00538-3.60307-8.4867-9.73166-7.45838-15.77316-2.85457,6.25757-.35346,13.64082,3.44452,19.3862A36.8273,36.8273,0,0,0,395.7201,171.33795Z" transform="translate(-95.22848 -56.26033)" fill="#2f2e41"/><path d="M393.86156,214.83046l-16.20248-.896-4.2229,41.1624-3.14352,38.17516a7.176,7.176,0,0,0,8.06525,7.5589l12.70808-1.9078A7.176,7.176,0,0,0,397.074,292.5879l-3.21248-77.75744Z" transform="translate(-95.22848 -56.26033)" fill="#007AFF"/><rect x="365.0457" y="245.41089" width="28.97153" height="28.97153" transform="translate(-113.77189 468.79379) rotate(-74.21112)" fill="#e6e6e6"/><polygon points="501.123 721.084 485.543 721.083 478.138 659.249 501.126 659.25 501.123 721.084" fill="#ffb8b8"/><path d="M599.70929,787.99274l-52.99475-.002v-.67045a20.62815,20.62815,0,0,1,20.627-20.627h.00131l32.3675.00131Z" transform="translate(-95.22848 -56.26033)" fill="#2f2e41"/><polygon points="449.123 721.084 433.543 721.083 426.138 659.249 449.126 659.25 449.123 721.084" fill="#ffb8b8"/><path d="M547.70929,787.99274l-52.99475-.002v-.67045a20.62815,20.62815,0,0,1,20.627-20.627h.00131l32.3675.00131Z" transform="translate(-95.22848 -56.26033)" fill="#2f2e41"/><path d="M574.61068,512.45018l31.49985-2.24285h.00007a87.578,87.578,0,0,1,94.99,79.64639v.47516L690.60054,744.84467h-42.97l-7.5-109.5-31.5,110.5H538.811q-2.00293-110.13813-4.00586-220.2761Z" transform="translate(-95.22848 -56.26033)" fill="#2f2e41"/><path d="M569.40474,372.15576l-23.52838,63.4104-94.92108-25.6,5.93528-34.87255,5.61272-32.9778c2.88172-16.93746,18.38192-28.44506,35.48719-26.34951h0c15.90242,1.94761,27.62541,15.53286,27.03863,31.52113Z" transform="translate(-95.22848 -56.26033)" fill="#2f2e41"/><path d="M537.80988,388.79763H509.36571V366.69764a28.4444,28.4444,0,1,1,56.8888-.04988C565.44852,381.53577,554.27392,388.79763,537.80988,388.79763Z" transform="translate(-95.22848 -56.26033)" fill="#007AFF"/><ellipse cx="514.41935" cy="326.28882" rx="4.34647" ry="8.69293" fill="#e6e6e6"/><circle cx="486.42068" cy="246" r="13" fill="#e6e6e6"/><circle cx="486.42068" cy="246" r="3" fill="#3f3d56"/><path d="M547.22848,257.93581a6.5623,6.5623,0,0,1-9.28027,0,6.55851,6.55851,0,0,1,0-9.27246L555.85351,231.154l9.27344,9.28222-17.8985,17.49963Z" transform="translate(-95.22848 -56.26033)" fill="#007AFF"/><path d="M564.92664,240.24267a6.5623,6.5623,0,0,1-9.28027,0,6.55851,6.55851,0,0,1,0-9.27246l17.9054-17.50585,9.27344,9.28222-17.8985,17.49609Z" transform="translate(-95.22848 -56.26033)" fill="#007AFF"/><path d="M527.73027,223.92038l47.22088-46.19354,9.27344,9.28222-17.8985,17.49663a6.5623,6.5623,0,0,1-9.28027,0,6.55851,6.55851,0,0,1,0-9.27246l17.9054-17.50586-9.27344-9.28222-29.67425,29.0293Z" transform="translate(-95.22848 -56.26033)" fill="#007AFF"/><path d="M547.22848,257.93581a6.5623,6.5623,0,0,1-9.28027,0,6.55851,6.55851,0,0,1,0-9.27246L555.85351,231.154l9.27344,9.28222-17.8985,17.49963Z" transform="translate(-95.22848 -56.26033)" fill="#007AFF"/><path d="M564.92664,240.24267a6.5623,6.5623,0,0,1-9.28027,0,6.55851,6.55851,0,0,1,0-9.27246l17.9054-17.50585,9.27344,9.28222-17.8985,17.49609Z" transform="translate(-95.22848 -56.26033)" fill="#007AFF"/><rect x="372.1409" y="144.18923" width="9.36455" height="9.36455" transform="translate(76.19956 427.54103) rotate(-87.72461)" fill="#e6e6e6"/><path d="M381.42068,172a30,30,0,1,1,30-30A30.03406,30.03406,0,0,1,381.42068,172Zm0-58a28,28,0,1,0,28,28A28.03153,28.03153,0,0,0,381.42068,114Z" transform="translate(-95.22848 -56.26033)" fill="#3f3d56"/><path d="M381.42068,202a60,60,0,1,1,60-60A60.06812,60.06812,0,0,1,381.42068,202Zm0-118a58,58,0,1,0,58,58A58.06539,58.06539,0,0,0,381.42068,84Z" transform="translate(-95.22848 -56.26033)" fill="#3f3d56"/><path d="M381.42068,232a90,90,0,1,1,90-90A90.10221,90.10221,0,0,1,381.42068,232Zm0-178a88,88,0,1,0,88,88A88.09961,88.09961,0,0,0,381.42068,54Z" transform="translate(-95.22848 -56.26033)" fill="#3f3d56"/><path d="M826.92068,312a90,90,0,1,1,90-90A90.10221,90.10221,0,0,1,826.92068,312Zm0-178a88,88,0,1,0,88,88A88.09961,88.09961,0,0,0,826.92068,134Z" transform="translate(-95.22848 -56.26033)" fill="#3f3d56"/><path d="M826.92068,282a60,60,0,1,1,60-60A60.06812,60.06812,0,0,1,826.92068,282Zm0-118a58,58,0,1,0,58,58A58.06539,58.06539,0,0,0,826.92068,164Z" transform="translate(-95.22848 -56.26033)" fill="#3f3d56"/><path d="M826.92068,252a30,30,0,1,1,30-30A30.03406,30.03406,0,0,1,826.92068,252Zm0-58a28,28,0,1,0,28,28A28.03153,28.03153,0,0,0,826.92068,194Z" transform="translate(-95.22848 -56.26033)" fill="#3f3d56"/><circle cx="731.69221" cy="153" r="13" fill="#e6e6e6"/><circle cx="731.69221" cy="153" r="3" fill="#3f3d56"/><path d="M832.84682,150.19639a6.56327,6.56327,0,0,1,0,9.28027,6.55851,6.55851,0,0,1-9.27246,0l-17.5-17.89941,9.28223-9.27344,17.5,17.8985Z" transform="translate(-95.22848 -56.26033)" fill="#007AFF"/><path d="M815.15368,132.49823a6.56326,6.56326,0,0,1,0,9.28028,6.55851,6.55851,0,0,1-9.27246,0l-17.50586-17.90539,9.28222-9.27344,17.49609,17.8985Z" transform="translate(-95.22848 -56.26033)" fill="#007AFF"/><path d="M798.83139,169.6946l-46.19354-47.22089,9.28223-9.27343,17.49662,17.8985a6.56327,6.56327,0,0,1,0,9.28027,6.55851,6.55851,0,0,1-9.27246,0l-17.50585-17.9054-9.28223,9.27344,29.0293,29.67425Z" transform="translate(-95.22848 -56.26033)" fill="#007AFF"/><rect x="827.67523" y="144.18927" width="9.36455" height="9.36455" transform="translate(1467.19778 373.59416) rotate(-177.72471)" fill="#e6e6e6"/><rect x="654.91935" y="279.28882" width="8.69293" height="4.34647" transform="translate(0.22393 799.0319) rotate(-67.40059)" fill="#e6e6e6"/><path d="M553.69571,354.19631a16.12163,16.12163,0,0,0-16.12,16.11005v94.59a16.12162,16.12162,0,0,0,16.12,16.11h90.58a16.12,16.12,0,0,0,16.12-16.11v-94.59a16.11989,16.11989,0,0,0-16.12-16.11005Z" transform="translate(-95.22848 -56.26033)" fill="#e6e6e6"/><path d="M555.69571,387.19631a4.00785,4.00785,0,0,0-4,4v75a4.00785,4.00785,0,0,0,4,4h86a4.00785,4.00785,0,0,0,4-4v-75a4.00785,4.00785,0,0,0-4-4Z" transform="translate(-95.22848 -56.26033)" fill="#fff"/><path d="M557.69571,467.39632a2.00511,2.00511,0,0,0,2,2h27a1.99159,1.99159,0,0,0,2-2v-15a1.99159,1.99159,0,0,0-2-2h-27a2.00511,2.00511,0,0,0-2,2Z" transform="translate(-95.22848 -56.26033)" fill="#3f3d56"/><path d="M610.69571,467.39632a2.00511,2.00511,0,0,0,2,2h27a1.99159,1.99159,0,0,0,2-2v-15a1.99159,1.99159,0,0,0-2-2h-27a2.00511,2.00511,0,0,0-2,2Z" transform="translate(-95.22848 -56.26033)" fill="#3f3d56"/><path d="M557.69571,438.39632a2.00511,2.00511,0,0,0,2,2h27a1.99159,1.99159,0,0,0,2-2v-15a1.99159,1.99159,0,0,0-2-2h-27a2.00511,2.00511,0,0,0-2,2Z" transform="translate(-95.22848 -56.26033)" fill="#3f3d56"/><path d="M610.69571,438.39632a2.00511,2.00511,0,0,0,2,2h27a1.99159,1.99159,0,0,0,2-2v-15a1.99159,1.99159,0,0,0-2-2h-27a2.00511,2.00511,0,0,0-2,2Z" transform="translate(-95.22848 -56.26033)" fill="#3f3d56"/><path d="M557.69571,409.39632a2.00511,2.00511,0,0,0,2,2h27a1.99159,1.99159,0,0,0,2-2v-15a1.99159,1.99159,0,0,0-2-2h-27a2.00511,2.00511,0,0,0-2,2Z" transform="translate(-95.22848 -56.26033)" fill="#3f3d56"/><path d="M610.69571,409.39632a2.00511,2.00511,0,0,0,2,2h27a1.99159,1.99159,0,0,0,2-2v-15a1.99159,1.99159,0,0,0-2-2h-27a2.00511,2.00511,0,0,0-2,2Z" transform="translate(-95.22848 -56.26033)" fill="#3f3d56"/><path d="M598.44,377.82342a8.02688,8.02688,0,0,0-15.13906,3.63l-17.75978,40.43a8.02685,8.02685,0,1,0,15.13906-3.63l17.75978-40.43A8.0024,8.0024,0,0,0,598.44,377.82342Z" transform="translate(-95.22848 -56.26033)" fill="#007AFF"/><circle cx="315.3518" cy="350.36153" r="3" fill="#3f3d56"/><circle cx="470.42068" cy="184" r="3" fill="#3f3d56"/><circle cx="440.42068" cy="184" r="3" fill="#3f3d56"/><circle cx="455.42068" cy="167" r="3" fill="#3f3d56"/><path d="M345.96156,462.83046l-16.84111-11.947,23.7636-33.49491,5.88243-37.41582A7.176,7.176,0,0,0,350.63,371.289l-12.70808-1.90777A7.176,7.176,0,0,0,329.853,376.032l-5.33649,77.56885Z" transform="translate(-95.22848 -56.26033)" fill="#007AFF"/><rect x="271.44188" y="389.86838" width="28.97153" height="28.97153" transform="translate(-283.97312 198.50889) rotate(-35.35043)" fill="#e6e6e6"/><rect x="295.3518" y="350.36153" width="40" height="5" fill="#e6e6e6"/><path d="M349.64185,320.32742l17.63482,7.16772s3.74528,3.1921,1.09,6.25S349.64185,320.32742,349.64185,320.32742Z" transform="translate(-95.22848 -56.26033)" fill="#e6e6e6"/><path d="M335.64185,328.32742l17.63482,7.16772s3.74528,3.1921,1.09,6.25S335.64185,328.32742,335.64185,328.32742Z" transform="translate(-95.22848 -56.26033)" fill="#e6e6e6"/><polygon points="270.38 281.227 280.768 291.615 264.38 307.227 254.38 297.227 270.38 281.227" fill="#e6e6e6"/><ellipse cx="547.41935" cy="352.28882" rx="4.34647" ry="8.69293" fill="#e6e6e6"/><circle cx="578.7214" cy="324.82341" r="3" fill="#3f3d56"/><rect x="616.91935" y="343.28882" width="4.34647" height="8.69293" transform="translate(-154.85241 605.32091) rotate(-61.18921)" fill="#e6e6e6"/><polygon points="636.879 281.339 627.905 292.894 613.014 278.003 622.038 266.47 636.879 281.339" fill="#e6e6e6"/><path d="M806.07493,339.094a6.565,6.565,0,0,1-10.05848,3.28364,6.55851,6.55851,0,0,1-2.32577-8.79775l8.33384-15.48454,12.38225,6.91823-8.33384,14.07732Z" transform="translate(-95.22848 -56.26033)" fill="#e6e6e6"/><path d="M786.92664,186.24267a6.5623,6.5623,0,0,1-9.28027,0,6.55851,6.55851,0,0,1,0-9.27246l7.07249-6.9073-9.40134-1.08411L764.63481,180.1514a6.5623,6.5623,0,0,1-9.28027,0,6.55851,6.55851,0,0,1,0-9.27246l17.9054-17.50585,9.27344,9.28222-17.8985,17.49609Z" transform="translate(-95.22848 -56.26033)" fill="#e6e6e6"/><path d="M798.834,169.69559l-46.20133-47.21316,9.27344-9.28222,17.9054,17.50586a6.5623,6.5623,0,0,1,0,9.28028,6.55851,6.55851,0,0,1-9.27246,0L752.9818,122.03168l-7.84591,7.84591,24.80633,25.40582Z" transform="translate(-95.22848 -56.26033)" fill="#e6e6e6"/><rect x="600.7214" cy="284.82341" width="40" height="5" fill="#e6e6e6"/><rect x="649.7214" cy="295.82341" width="40" height="5" fill="#e6e6e6"/><path d="M832.84682,150.19639a6.56327,6.56327,0,0,1,0,9.28027,6.55851,6.55851,0,0,1-9.27246,0l-17.5-17.89941,9.28223-9.27344,17.5,17.8985Z" transform="translate(-95.22848 -56.26033)" fill="#007AFF"/><path d="M815.15368,132.49823a6.56326,6.56326,0,0,1,0,9.28028,6.55851,6.55851,0,0,1-9.27246,0l-17.50586-17.90539,9.28222-9.27344,17.49609,17.8985Z" transform="translate(-95.22848 -56.26033)" fill="#007AFF"/><rect x="750.7214" cy="224.82341" width="5" height="40" fill="#e6e6e6"/><path d="M797.964,304.32742l17.63482,7.16772s3.74528,3.1921,1.09,6.25S797.964,304.32742,797.964,304.32742Z" transform="translate(-95.22848 -56.26033)" fill="#e6e6e6"/><polygon points="723.38 265.227 733.768 275.615 717.38 291.227 707.38 281.227 723.38 265.227" fill="#e6e6e6"/><path d="M527.73027,223.92038l-47.19354-46.22089,9.27344-9.28222,17.8985,17.49663a6.5623,6.5623,0,0,1,0,9.28027,6.55851,6.55851,0,0,1-9.28027,0l-17.9054-17.50586,9.27344-9.28222,29.67425,29.0293Z" transform="translate(-95.22848 -56.26033)" fill="#007AFF"/><path d="M500.56625,187.83267a6.5623,6.5623,0,0,1,0,9.28027,6.55851,6.55851,0,0,1-9.28027,0L473.38748,179.6169l9.27344-9.28222,17.8985,17.49609Z" transform="translate(-95.22848 -56.26033)" fill="#e6e6e6"/><path d="M479.8764,133.2669l47.2209-46.19357,1.63409,1.63409-9.28222,9.28222-9.28223,9.27344-17.50586-17.9054-9.28222,9.27344,29.0293,29.67425Z" transform="translate(-95.22848 -56.26033)" fill="#e6e6e6"/><rect x="390.42068" cy="146" width="5" height="40" fill="#e6e6e6"/><rect x="439.42068" cy="95" width="40" height="5" fill="#e6e6e6"/><path d="M486.48959,100.28462l7.16772,17.63482s3.1921,3.74528,6.25,1.09S486.48959,100.28462,486.48959,100.28462Z" transform="translate(-95.22848 -56.26033)" fill="#e6e6e6"/><polygon points="403.879 42.339 394.905 53.894 380.014 39.003 389.038 27.47 403.879 42.339" fill="#e6e6e6"/><path d="M485.13583,99.84908l-17.63482,7.16772s-3.74528,3.1921-1.09,6.25S485.13583,99.84908,485.13583,99.84908Z" transform="translate(-95.22848 -56.26033)" fill="#e6e6e6"/></svg>